<svg width="432" height="67" viewBox="0 0 432 67" fill="none" xmlns="http://www.w3.org/2000/svg">
<path d="M13.4923 42.48C10.9963 42.48 8.88431 41.968 7.15631 40.944C5.42831 39.92 4.11631 38.48 3.22031 36.624C2.32431 34.736 1.87631 32.528 1.87631 30C1.87631 27.44 2.30831 25.232 3.17231 23.376C4.06831 21.488 5.34831 20.032 7.01231 19.008C8.70831 17.984 10.7403 17.472 13.1083 17.472C15.9563 17.472 18.1483 18.112 19.6843 19.392C21.2203 20.672 22.1803 22.32 22.5643 24.336H23.9083V29.76H22.9963C22.9963 27.68 22.3883 26.208 21.1723 25.344C19.9883 24.48 18.2443 24.048 15.9403 24.048C14.4043 24.048 13.1243 24.24 12.1003 24.624C11.1083 25.008 10.3723 25.632 9.89231 26.496C9.41231 27.328 9.17231 28.496 9.17231 30C9.17231 31.44 9.41231 32.592 9.89231 33.456C10.3723 34.32 11.1083 34.944 12.1003 35.328C13.1243 35.712 14.4043 35.904 15.9403 35.904C17.4763 35.904 18.7563 35.712 19.7803 35.328C20.8363 34.944 21.6363 34.336 22.1803 33.504C22.7243 32.64 22.9963 31.52 22.9963 30.144H23.9083L24.3883 35.328H23.0923C22.6443 37.696 21.6203 39.488 20.0203 40.704C18.4203 41.888 16.2443 42.48 13.4923 42.48ZM30.1963 42H23.4763V34.896L22.9963 34.272V9.84H30.1963V42ZM41.2059 42H34.0059V17.952H40.6779V24.816L41.2059 25.056V42ZM41.2059 28.08H39.7659V24.336H41.1099C41.3339 23.024 41.7659 21.856 42.4059 20.832C43.0779 19.776 43.9739 18.96 45.0939 18.384C46.2139 17.776 47.5739 17.472 49.1739 17.472C50.9979 17.472 52.4539 17.856 53.5419 18.624C54.6619 19.36 55.4779 20.368 55.9899 21.648C56.5019 22.896 56.7579 24.304 56.7579 25.872V29.856H49.5579V27.36C49.5579 26.016 49.2539 25.056 48.6459 24.48C48.0699 23.872 47.0459 23.568 45.5739 23.568C43.9739 23.568 42.8379 23.936 42.1659 24.672C41.5259 25.408 41.2059 26.544 41.2059 28.08ZM72.1333 42.48C69.4773 42.48 67.1253 42.032 65.0773 41.136C63.0293 40.24 61.4453 38.864 60.3253 37.008C59.2053 35.152 58.6453 32.816 58.6453 30C58.6453 27.44 59.2053 25.232 60.3253 23.376C61.4453 21.488 62.9973 20.032 64.9813 19.008C66.9973 17.984 69.3333 17.472 71.9893 17.472C74.6133 17.472 76.9013 17.92 78.8533 18.816C80.8373 19.712 82.3733 21.04 83.4613 22.8C84.5493 24.528 85.0933 26.64 85.0933 29.136C85.0933 29.552 85.0773 29.936 85.0453 30.288C85.0133 30.64 84.9653 31.024 84.9013 31.44H63.3013V27.648H79.8133L78.1813 30C78.1813 29.68 78.1813 29.376 78.1813 29.088C78.1813 28.8 78.1813 28.512 78.1813 28.224C78.1813 26.4 77.6853 25.088 76.6933 24.288C75.7013 23.488 74.0853 23.088 71.8453 23.088C69.4133 23.088 67.7173 23.568 66.7573 24.528C65.7973 25.456 65.3173 26.944 65.3173 28.992V30.816C65.3173 32.864 65.7973 34.368 66.7573 35.328C67.7173 36.256 69.4293 36.72 71.8933 36.72C74.0053 36.72 75.4933 36.448 76.3573 35.904C77.2213 35.36 77.6533 34.576 77.6533 33.552V33.072H84.8533V33.6C84.8533 35.328 84.3253 36.864 83.2693 38.208C82.2133 39.552 80.7253 40.608 78.8053 41.376C76.9173 42.112 74.6933 42.48 72.1333 42.48ZM112.435 42H105.715V36.288L105.331 36.192V27.792C105.331 26.224 104.931 25.168 104.131 24.624C103.363 24.08 102.019 23.808 100.099 23.808C98.2746 23.808 96.9626 24.08 96.1626 24.624C95.3626 25.168 94.9626 26.128 94.9626 27.504V27.696H87.7146V27.552C87.7146 25.568 88.2426 23.824 89.2986 22.32C90.3546 20.784 91.8426 19.6 93.7626 18.768C95.7146 17.904 98.0026 17.472 100.627 17.472C103.315 17.472 105.523 17.904 107.251 18.768C109.011 19.632 110.307 20.848 111.139 22.416C112.003 23.952 112.435 25.776 112.435 27.888V42ZM95.5386 42.48C92.9466 42.48 90.9146 41.904 89.4426 40.752C87.9706 39.6 87.2346 38.032 87.2346 36.048C87.2346 34.832 87.5226 33.792 88.0986 32.928C88.6746 32.064 89.5386 31.376 90.6906 30.864C91.8426 30.32 93.2826 29.952 95.0106 29.76L105.811 28.656V32.784L96.9786 33.792C96.1146 33.856 95.4746 34.032 95.0586 34.32C94.6746 34.576 94.4826 34.992 94.4826 35.568C94.4826 36.208 94.7386 36.672 95.2506 36.96C95.7626 37.248 96.5466 37.392 97.6026 37.392C99.3306 37.392 100.755 37.232 101.875 36.912C102.995 36.592 103.843 36.08 104.419 35.376C105.027 34.64 105.331 33.664 105.331 32.448L106.003 32.4V36.48H105.331C104.787 38.336 103.683 39.808 102.019 40.896C100.387 41.952 98.2266 42.48 95.5386 42.48ZM159.956 42H152.756V29.424C152.756 27.44 152.356 26.032 151.556 25.2C150.756 24.368 149.316 23.952 147.236 23.952C145.06 23.952 143.572 24.416 142.772 25.344C142.004 26.272 141.62 27.776 141.62 29.856H140.708L140.132 25.344H141.524C141.716 23.968 142.132 22.688 142.772 21.504C143.444 20.32 144.42 19.36 145.7 18.624C147.012 17.856 148.692 17.472 150.74 17.472C152.82 17.472 154.532 17.888 155.876 18.72C157.252 19.552 158.276 20.688 158.948 22.128C159.62 23.568 159.956 25.2 159.956 27.024V42ZM123.284 42H116.084V17.952H122.756V25.44L123.284 25.68V42ZM141.62 42H134.42V29.424C134.42 27.44 134.02 26.032 133.22 25.2C132.42 24.368 130.98 23.952 128.9 23.952C126.692 23.952 125.204 24.416 124.436 25.344C123.668 26.272 123.284 27.776 123.284 29.856H122.372L121.844 25.248H123.14C123.364 23.904 123.796 22.656 124.436 21.504C125.076 20.32 126.02 19.36 127.268 18.624C128.516 17.856 130.148 17.472 132.164 17.472C134.244 17.472 135.94 17.904 137.252 18.768C138.596 19.632 139.588 20.784 140.228 22.224C140.868 23.664 141.188 25.264 141.188 27.024H141.62V42ZM183.838 42.48C181.118 42.48 178.734 41.968 176.686 40.944C174.638 39.92 173.054 38.48 171.934 36.624C170.846 34.736 170.302 32.528 170.302 30C170.302 27.44 170.846 25.232 171.934 23.376C173.054 21.488 174.638 20.032 176.686 19.008C178.734 17.984 181.118 17.472 183.838 17.472C186.43 17.472 188.702 17.904 190.654 18.768C192.606 19.632 194.126 20.848 195.214 22.416C196.302 23.952 196.846 25.76 196.846 27.84V28.512H189.694V28.128C189.694 26.592 189.166 25.52 188.11 24.912C187.054 24.272 185.582 23.952 183.694 23.952C181.55 23.952 179.966 24.4 178.942 25.296C177.95 26.192 177.454 27.76 177.454 30C177.454 32.176 177.95 33.728 178.942 34.656C179.966 35.552 181.55 36 183.694 36C185.582 36 187.054 35.696 188.11 35.088C189.166 34.448 189.694 33.36 189.694 31.824V31.44H196.846V32.112C196.846 34.192 196.302 36.016 195.214 37.584C194.126 39.12 192.606 40.32 190.654 41.184C188.702 42.048 186.43 42.48 183.838 42.48ZM212.759 42.48C210.039 42.48 207.639 41.968 205.559 40.944C203.511 39.92 201.911 38.48 200.759 36.624C199.607 34.736 199.031 32.528 199.031 30C199.031 27.44 199.607 25.232 200.759 23.376C201.911 21.488 203.511 20.032 205.559 19.008C207.639 17.984 210.039 17.472 212.759 17.472C215.511 17.472 217.911 17.984 219.959 19.008C222.007 20.032 223.607 21.488 224.759 23.376C225.911 25.232 226.487 27.44 226.487 30C226.487 32.528 225.911 34.736 224.759 36.624C223.607 38.48 222.007 39.92 219.959 40.944C217.911 41.968 215.511 42.48 212.759 42.48ZM212.759 36.096C215.191 36.096 216.887 35.616 217.847 34.656C218.839 33.664 219.335 32.112 219.335 30C219.335 27.856 218.839 26.288 217.847 25.296C216.887 24.304 215.191 23.808 212.759 23.808C210.327 23.808 208.615 24.304 207.623 25.296C206.663 26.288 206.183 27.856 206.183 30C206.183 32.112 206.663 33.664 207.623 34.656C208.615 35.616 210.327 36.096 212.759 36.096ZM273.3 42H266.1V29.424C266.1 27.44 265.7 26.032 264.9 25.2C264.1 24.368 262.66 23.952 260.58 23.952C258.404 23.952 256.916 24.416 256.116 25.344C255.348 26.272 254.964 27.776 254.964 29.856H254.052L253.476 25.344H254.868C255.06 23.968 255.476 22.688 256.116 21.504C256.788 20.32 257.764 19.36 259.044 18.624C260.356 17.856 262.036 17.472 264.084 17.472C266.164 17.472 267.876 17.888 269.22 18.72C270.596 19.552 271.62 20.688 272.292 22.128C272.964 23.568 273.3 25.2 273.3 27.024V42ZM236.628 42H229.428V17.952H236.1V25.44L236.628 25.68V42ZM254.964 42H247.764V29.424C247.764 27.44 247.364 26.032 246.564 25.2C245.764 24.368 244.324 23.952 242.244 23.952C240.036 23.952 238.548 24.416 237.78 25.344C237.012 26.272 236.628 27.776 236.628 29.856H235.716L235.188 25.248H236.484C236.708 23.904 237.14 22.656 237.78 21.504C238.42 20.32 239.364 19.36 240.612 18.624C241.86 17.856 243.492 17.472 245.508 17.472C247.588 17.472 249.284 17.904 250.596 18.768C251.94 19.632 252.932 20.784 253.572 22.224C254.212 23.664 254.532 25.264 254.532 27.024H254.964V42ZM293.951 42.48C291.167 42.48 288.991 41.856 287.423 40.608C285.887 39.328 284.911 37.632 284.495 35.52H283.247V30.336H284.159C284.159 31.68 284.431 32.768 284.975 33.6C285.519 34.432 286.303 35.024 287.327 35.376C288.383 35.728 289.663 35.904 291.167 35.904C292.735 35.904 294.015 35.712 295.007 35.328C295.999 34.944 296.735 34.32 297.215 33.456C297.695 32.592 297.935 31.44 297.935 30C297.935 28.496 297.695 27.328 297.215 26.496C296.735 25.632 295.999 25.024 295.007 24.672C294.015 24.288 292.751 24.096 291.215 24.096C288.879 24.096 287.119 24.544 285.935 25.44C284.751 26.304 284.159 27.808 284.159 29.952H283.247L282.719 24.528H284.111C284.527 22.224 285.519 20.48 287.087 19.296C288.687 18.08 290.895 17.472 293.711 17.472C296.175 17.472 298.255 17.984 299.951 19.008C301.679 20.032 302.991 21.488 303.887 23.376C304.783 25.232 305.231 27.44 305.231 30C305.231 32.528 304.783 34.736 303.887 36.624C303.023 38.48 301.743 39.92 300.047 40.944C298.383 41.968 296.351 42.48 293.951 42.48ZM284.159 50.16H276.959V17.952H283.631V25.104L284.159 25.728V50.16ZM332.513 42H325.793V36.288L325.409 36.192V27.792C325.409 26.224 325.009 25.168 324.209 24.624C323.441 24.08 322.097 23.808 320.177 23.808C318.353 23.808 317.041 24.08 316.241 24.624C315.441 25.168 315.041 26.128 315.041 27.504V27.696H307.793V27.552C307.793 25.568 308.321 23.824 309.377 22.32C310.433 20.784 311.921 19.6 313.841 18.768C315.793 17.904 318.081 17.472 320.705 17.472C323.393 17.472 325.601 17.904 327.329 18.768C329.089 19.632 330.385 20.848 331.217 22.416C332.081 23.952 332.513 25.776 332.513 27.888V42ZM315.617 42.48C313.025 42.48 310.993 41.904 309.521 40.752C308.049 39.6 307.313 38.032 307.313 36.048C307.313 34.832 307.601 33.792 308.177 32.928C308.753 32.064 309.617 31.376 310.769 30.864C311.921 30.32 313.361 29.952 315.089 29.76L325.889 28.656V32.784L317.057 33.792C316.193 33.856 315.553 34.032 315.137 34.32C314.753 34.576 314.561 34.992 314.561 35.568C314.561 36.208 314.817 36.672 315.329 36.96C315.841 37.248 316.625 37.392 317.681 37.392C319.409 37.392 320.833 37.232 321.953 36.912C323.073 36.592 323.921 36.08 324.497 35.376C325.105 34.64 325.409 33.664 325.409 32.448L326.081 32.4V36.48H325.409C324.865 38.336 323.761 39.808 322.097 40.896C320.465 41.952 318.305 42.48 315.617 42.48ZM362.754 42H355.554V29.424C355.554 27.472 355.106 26.08 354.21 25.248C353.314 24.384 351.762 23.952 349.554 23.952C347.25 23.952 345.634 24.432 344.706 25.392C343.81 26.32 343.362 27.808 343.362 29.856H342.45L341.922 25.344H343.266C343.49 24 343.97 22.736 344.706 21.552C345.442 20.336 346.482 19.36 347.826 18.624C349.202 17.856 350.946 17.472 353.058 17.472C355.234 17.472 357.042 17.904 358.482 18.768C359.922 19.6 360.994 20.736 361.698 22.176C362.402 23.616 362.754 25.232 362.754 27.024V42ZM343.362 42H336.162V17.952H342.834V25.44L343.362 25.68V42ZM373.597 42H366.397V17.952H373.597V42ZM373.597 15.504H366.397V9.84H373.597V15.504ZM390.133 42.48C387.477 42.48 385.125 42.032 383.077 41.136C381.029 40.24 379.445 38.864 378.325 37.008C377.205 35.152 376.645 32.816 376.645 30C376.645 27.44 377.205 25.232 378.325 23.376C379.445 21.488 380.997 20.032 382.981 19.008C384.997 17.984 387.333 17.472 389.989 17.472C392.613 17.472 394.901 17.92 396.853 18.816C398.837 19.712 400.373 21.04 401.461 22.8C402.549 24.528 403.093 26.64 403.093 29.136C403.093 29.552 403.077 29.936 403.045 30.288C403.013 30.64 402.965 31.024 402.901 31.44H381.301V27.648H397.813L396.181 30C396.181 29.68 396.181 29.376 396.181 29.088C396.181 28.8 396.181 28.512 396.181 28.224C396.181 26.4 395.685 25.088 394.693 24.288C393.701 23.488 392.085 23.088 389.845 23.088C387.413 23.088 385.717 23.568 384.757 24.528C383.797 25.456 383.317 26.944 383.317 28.992V30.816C383.317 32.864 383.797 34.368 384.757 35.328C385.717 36.256 387.429 36.72 389.893 36.72C392.005 36.72 393.493 36.448 394.357 35.904C395.221 35.36 395.653 34.576 395.653 33.552V33.072H402.853V33.6C402.853 35.328 402.325 36.864 401.269 38.208C400.213 39.552 398.725 40.608 396.805 41.376C394.917 42.112 392.693 42.48 390.133 42.48ZM418.291 42.48C414.259 42.48 411.155 41.728 408.979 40.224C406.803 38.688 405.715 36.528 405.715 33.744V33.6H412.915V34.032C412.915 35.12 413.299 35.856 414.067 36.24C414.867 36.592 416.291 36.768 418.339 36.768C420.259 36.768 421.523 36.608 422.131 36.288C422.771 35.936 423.091 35.408 423.091 34.704C423.091 34.032 422.851 33.568 422.371 33.312C421.891 33.024 420.947 32.784 419.539 32.592L412.771 31.776C410.371 31.52 408.515 30.848 407.203 29.76C405.923 28.672 405.283 27.104 405.283 25.056C405.283 23.648 405.699 22.384 406.531 21.264C407.363 20.112 408.643 19.2 410.371 18.528C412.131 17.824 414.387 17.472 417.139 17.472C419.763 17.472 421.987 17.808 423.811 18.48C425.667 19.12 427.075 20.096 428.035 21.408C428.995 22.72 429.475 24.352 429.475 26.304V26.448H422.275V26.16C422.275 25.488 422.131 24.944 421.843 24.528C421.587 24.08 421.059 23.744 420.259 23.52C419.491 23.296 418.371 23.184 416.899 23.184C415.107 23.184 413.907 23.36 413.299 23.712C412.691 24.032 412.387 24.576 412.387 25.344C412.387 25.952 412.627 26.416 413.107 26.736C413.619 27.024 414.659 27.28 416.227 27.504L421.363 28.128C424.563 28.48 426.835 29.216 428.179 30.336C429.523 31.456 430.195 33.008 430.195 34.992C430.195 36.496 429.715 37.808 428.755 38.928C427.795 40.048 426.435 40.928 424.675 41.568C422.915 42.176 420.787 42.48 418.291 42.48Z" fill="#26A4FF"/>
<path d="M9.69044 58.8383C13.0649 58.8383 16.6001 58.7787 19.9746 58.7192C21.4208 58.7192 22.7063 58.6596 24.1525 58.6596C30.2587 58.5404 36.3649 58.4213 42.4711 58.3021C49.8628 58.183 57.0938 58.0043 64.4855 57.8851C74.9303 57.6468 85.3751 57.4681 95.8199 57.2298C98.2303 57.1702 100.641 57.1702 103.051 57.1106C109.157 56.9915 115.263 56.8723 121.37 56.8128C127.476 56.6936 133.582 56.5745 139.688 56.5149C142.098 56.4553 144.509 56.3958 146.919 56.3958C156.561 56.2766 166.363 56.1574 176.004 56.0383C181.949 55.9787 187.895 55.9192 194.001 55.8C196.411 55.8 198.661 55.7404 201.071 55.7404C210.391 55.6809 219.872 55.6213 229.192 55.5617C238.512 55.5021 247.671 55.4426 256.991 55.383C259.402 55.383 261.812 55.383 264.383 55.383C270.489 55.383 276.435 55.383 282.541 55.383C292.022 55.383 301.342 55.383 310.822 55.3234C313.875 55.3234 316.928 55.3234 319.982 55.3234C326.409 55.3234 332.837 55.3234 339.264 55.3234C339.746 55.3234 340.389 55.3234 340.871 55.3234C326.409 55.383 311.786 55.4426 297.324 55.5617C291.218 55.6213 285.273 55.6213 279.166 55.6809C276.595 55.6809 273.864 55.6809 271.293 55.7404C262.455 55.8 253.778 55.9192 244.94 55.9787C234.816 56.0979 224.693 56.1575 214.569 56.2766C212.802 56.2766 211.195 56.3362 209.427 56.3362C203.964 56.4553 198.661 56.5149 193.198 56.634C182.271 56.8128 171.344 56.9915 160.417 57.1702C158.81 57.1702 157.203 57.2298 155.596 57.2894C150.294 57.4085 144.83 57.5872 139.527 57.7064C129.886 57.9447 120.405 58.183 110.764 58.4213C108.193 58.4809 105.461 58.6 102.89 58.6596C96.7841 58.8383 90.6779 59.017 84.5717 59.2553C76.8586 59.4936 68.9848 59.7319 61.2717 59.9702C50.5055 60.3277 39.5787 60.6851 28.8125 61.0426C26.2414 61.1021 23.6704 61.2213 20.9387 61.2809C16.2787 61.4596 11.6187 61.6383 6.95872 61.817C6.47665 61.817 5.99458 61.9362 5.99458 62.1745C5.99458 62.3532 6.47665 62.5319 6.95872 62.5319C8.7263 62.5319 10.3332 62.5915 12.1008 62.5915C11.9401 62.7702 11.7794 62.949 11.7794 63.1277C11.7794 63.783 13.2256 64.3787 15.1539 64.3787C28.4911 64.0809 41.6676 63.7234 55.0048 63.4851C66.5745 63.3064 78.1441 63.0681 89.7137 62.8894C102.408 62.6511 115.263 62.4128 127.958 62.2341C131.975 62.1745 135.992 62.1149 140.01 61.9958C141.134 61.9958 142.259 61.9362 143.545 61.9362C164.113 61.7575 184.681 61.5192 205.249 61.3404C216.176 61.2213 227.264 61.1021 238.191 61.0426C242.208 60.983 246.064 60.983 250.082 60.9234C271.132 60.8043 292.182 60.6851 313.233 60.566C322.231 60.5064 331.23 60.4468 340.228 60.3872C347.942 60.3277 355.655 60.3277 363.368 60.2085C369.795 60.1489 376.062 60.0298 382.49 59.9702C385.704 59.9106 388.917 59.9106 391.97 59.8511C399.201 59.6723 406.432 59.4936 413.663 59.3149C413.181 59.5532 413.181 59.9106 413.342 60.1489C413.503 60.4468 413.985 60.6851 414.788 60.8043C415.431 60.9234 416.395 61.0426 417.038 60.9234C418.645 60.6851 420.252 60.4468 421.698 60.2085C421.698 60.2085 421.698 60.2085 421.537 60.2085C421.698 60.2085 421.698 60.1489 421.859 60.1489C422.019 60.1489 422.18 60.0894 422.18 60.0894H422.019C422.823 59.9702 423.626 59.8511 424.59 59.6724C425.394 59.5532 426.358 59.3745 427.161 59.2553C428.126 59.0766 428.929 58.8979 429.893 58.7192C430.857 58.5404 431.5 58.0638 431.5 57.6468C431.5 57.4085 431.339 57.2298 431.018 56.9915C430.697 56.7532 429.893 56.4553 429.09 56.3958C428.286 56.3362 427.483 56.2766 426.679 56.2766C426.519 56.2766 426.358 56.2766 426.197 56.2766C425.715 56.2766 425.072 56.2766 424.59 56.3362C423.305 56.3957 422.18 56.4553 420.895 56.4553C419.93 56.4553 418.966 56.5149 417.841 56.5149C415.11 56.5745 412.539 56.634 409.807 56.7532C409.164 56.7532 408.361 56.8128 407.718 56.8128C408.039 56.6936 408.2 56.5745 408.2 56.4553C408.361 56.3362 408.361 56.217 408.361 56.0979C408.361 56.0383 408.361 55.9192 408.521 55.8596C408.521 55.7404 408.521 55.6213 408.361 55.5617C408.361 55.5617 408.521 55.5617 408.521 55.5021C409.003 55.383 409.486 55.2638 409.807 55.0255C410.128 54.8468 410.289 54.6085 410.289 54.3702C410.289 54.1319 410.128 53.9532 409.807 53.7149C409.646 53.6553 409.486 53.5362 409.325 53.4766C408.843 53.2979 408.361 53.2383 407.879 53.1787C406.914 53.0596 405.79 53 404.665 53C403.701 53 402.897 53 401.933 53C400.648 53 399.362 53 398.077 53C396.309 53 394.381 53 392.613 53C387.792 53 382.972 53 378.151 53C373.652 53 368.992 53 364.493 53C360.315 53 356.297 53 352.119 53C335.568 53 319.178 53.0596 302.627 53.1192C290.254 53.1787 277.881 53.2383 265.508 53.2383C260.044 53.2383 254.42 53.2979 248.957 53.3574C236.584 53.4766 224.211 53.5362 211.838 53.6553C208.302 53.6553 204.767 53.7149 201.232 53.7149C199.143 53.7149 197.215 53.7745 195.126 53.7745C182.914 53.9532 170.701 54.1319 158.489 54.3106C154.793 54.3702 151.097 54.4298 147.241 54.4894C145.152 54.4894 143.063 54.5489 140.974 54.6085C128.761 54.8468 116.71 55.0851 104.497 55.3234C98.2303 55.4426 91.9634 55.5617 85.6965 55.7404C74.9303 55.9787 64.1641 56.217 53.5586 56.5149C44.2386 56.7532 34.9187 56.9319 25.5987 57.1106C24.1525 57.1702 22.7063 57.1702 21.0994 57.2298C18.689 57.2894 16.2787 57.2894 13.8684 57.3489C11.7794 57.4085 9.69044 57.4085 7.44079 57.4085C7.2801 57.2298 6.63734 57.0511 6.15527 57.0511C4.70907 57.1106 3.42355 57.1702 1.97735 57.2298C1.33459 57.2298 0.691833 57.3489 0.531144 57.6468C0.370455 57.9447 0.852522 58.2426 1.49528 58.3021C2.13804 58.3617 2.62011 58.4213 3.26286 58.4809C3.90562 58.5404 4.38769 58.5404 5.03045 58.5404C6.63734 58.7787 8.08354 58.7787 9.69044 58.8383ZM385.704 56.8723C387.632 56.8723 389.721 56.8723 391.649 56.8723C391.81 57.0511 392.131 57.1702 392.452 57.2894C391.649 57.2894 390.846 57.3489 390.203 57.3489C388.757 57.3489 387.31 57.4085 385.864 57.4085C379.437 57.4681 373.17 57.5872 366.742 57.6468C363.85 57.7064 360.957 57.766 358.065 57.766C353.566 57.766 348.906 57.8255 344.406 57.8255C333.962 57.8851 323.677 57.9447 313.233 58.0043C292.986 58.1234 272.9 58.2426 252.653 58.3617C238.191 58.4213 223.729 58.6 209.267 58.7787C187.574 59.017 165.72 59.1958 144.027 59.4341C139.688 59.4936 135.35 59.5532 131.011 59.6724C118.638 59.9106 106.265 60.0894 93.8917 60.3277C81.84 60.566 69.6276 60.7447 57.5759 60.983C56.451 60.983 55.3262 61.0426 54.2014 61.0426C57.4152 60.9234 60.7896 60.8638 64.0034 60.7447C75.4124 60.4468 86.8213 60.0894 98.2303 59.7915C102.247 59.6723 106.265 59.5532 110.121 59.4341C112.21 59.3745 114.299 59.3149 116.227 59.3149C128.118 59.0766 140.01 58.7787 151.901 58.5404C154.15 58.4809 156.561 58.4213 158.81 58.3617C162.185 58.3021 165.559 58.2426 168.773 58.2426C180.985 58.0638 193.198 57.8851 205.41 57.7064C208.142 57.6468 210.874 57.6468 213.445 57.5872C214.087 57.5872 214.891 57.5872 215.533 57.5872C217.462 57.5872 219.39 57.5872 221.158 57.5277C233.37 57.4085 245.743 57.3489 257.955 57.2298C263.58 57.1702 269.204 57.1106 274.828 57.1106C292.986 57.0511 311.304 56.9915 329.462 56.9319C348.584 56.9319 367.224 56.9319 385.704 56.8723Z" fill="#26A4FF"/>
<path d="M33.9534 67C34.4859 67 34.9175 66.84 34.9175 66.6426C34.9175 66.4452 34.4859 66.2852 33.9534 66.2852C33.4209 66.2852 32.9893 66.4452 32.9893 66.6426C32.9893 66.84 33.4209 67 33.9534 67Z" fill="#26A4FF"/>
</svg>
