<svg width="224" height="42" viewBox="0 0 224 42" fill="none" xmlns="http://www.w3.org/2000/svg">
<path d="M7.90906 33H0.709063V0.839999H7.90906V33ZM27.2051 21H2.72506V14.568H27.2051V21ZM27.9251 7.32H2.72506V0.839999H27.9251V7.32ZM38.1903 33H30.9903V8.952H38.1903V33ZM38.1903 6.504H30.9903V0.839999H38.1903V6.504ZM68.5511 33H61.3511V20.424C61.3511 18.472 60.9031 17.08 60.0071 16.248C59.1111 15.384 57.5591 14.952 55.3511 14.952C53.0471 14.952 51.4311 15.432 50.5031 16.392C49.6071 17.32 49.1591 18.808 49.1591 20.856H48.2471L47.7191 16.344H49.0631C49.2871 15 49.7671 13.736 50.5031 12.552C51.2391 11.336 52.2791 10.36 53.6231 9.624C54.9991 8.856 56.7431 8.472 58.8551 8.472C61.0311 8.472 62.8391 8.904 64.2791 9.768C65.7191 10.6 66.7911 11.736 67.4951 13.176C68.1991 14.616 68.5511 16.232 68.5511 18.024V33ZM49.1591 33H41.9591V8.952H48.6311V16.44L49.1591 16.68V33ZM82.9454 33.48C80.4494 33.48 78.3374 32.968 76.6094 31.944C74.8814 30.92 73.5694 29.48 72.6734 27.624C71.7774 25.736 71.3294 23.528 71.3294 21C71.3294 18.44 71.7614 16.232 72.6254 14.376C73.5214 12.488 74.8014 11.032 76.4654 10.008C78.1614 8.984 80.1934 8.472 82.5614 8.472C85.4094 8.472 87.6014 9.112 89.1374 10.392C90.6734 11.672 91.6334 13.32 92.0174 15.336H93.3614V20.76H92.4494C92.4494 18.68 91.8414 17.208 90.6254 16.344C89.4414 15.48 87.6974 15.048 85.3934 15.048C83.8574 15.048 82.5774 15.24 81.5534 15.624C80.5614 16.008 79.8254 16.632 79.3454 17.496C78.8654 18.328 78.6254 19.496 78.6254 21C78.6254 22.44 78.8654 23.592 79.3454 24.456C79.8254 25.32 80.5614 25.944 81.5534 26.328C82.5774 26.712 83.8574 26.904 85.3934 26.904C86.9294 26.904 88.2094 26.712 89.2334 26.328C90.2894 25.944 91.0894 25.336 91.6334 24.504C92.1774 23.64 92.4494 22.52 92.4494 21.144H93.3614L93.8414 26.328H92.5454C92.0974 28.696 91.0734 30.488 89.4734 31.704C87.8734 32.888 85.6974 33.48 82.9454 33.48ZM99.6494 33H92.9294V25.896L92.4494 25.272V0.839999H99.6494V33ZM115.473 41.16H111.537V34.632H117.441C118.337 34.632 119.009 34.504 119.457 34.248C119.905 33.992 120.273 33.544 120.561 32.904L121.569 30.552L120.849 33.912L108.705 8.952H116.865L121.953 19.944L123.969 25.608H124.449L126.369 19.896L130.929 8.952H138.945L127.041 34.728C126.273 36.392 125.377 37.688 124.353 38.616C123.329 39.576 122.097 40.232 120.657 40.584C119.217 40.968 117.489 41.16 115.473 41.16ZM153.494 33.48C150.774 33.48 148.374 32.968 146.294 31.944C144.246 30.92 142.646 29.48 141.494 27.624C140.342 25.736 139.766 23.528 139.766 21C139.766 18.44 140.342 16.232 141.494 14.376C142.646 12.488 144.246 11.032 146.294 10.008C148.374 8.984 150.774 8.472 153.494 8.472C156.246 8.472 158.646 8.984 160.694 10.008C162.742 11.032 164.342 12.488 165.494 14.376C166.646 16.232 167.222 18.44 167.222 21C167.222 23.528 166.646 25.736 165.494 27.624C164.342 29.48 162.742 30.92 160.694 31.944C158.646 32.968 156.246 33.48 153.494 33.48ZM153.494 27.096C155.926 27.096 157.622 26.616 158.582 25.656C159.574 24.664 160.07 23.112 160.07 21C160.07 18.856 159.574 17.288 158.582 16.296C157.622 15.304 155.926 14.808 153.494 14.808C151.062 14.808 149.35 15.304 148.358 16.296C147.398 17.288 146.918 18.856 146.918 21C146.918 23.112 147.398 24.664 148.358 25.656C149.35 26.616 151.062 27.096 153.494 27.096ZM180.098 33.48C177.858 33.48 175.986 33.064 174.482 32.232C173.01 31.368 171.906 30.216 171.17 28.776C170.466 27.336 170.114 25.72 170.114 23.928V8.952H177.314V21.528C177.314 23.448 177.778 24.856 178.706 25.752C179.634 26.616 181.234 27.048 183.506 27.048C185.874 27.048 187.522 26.584 188.45 25.656C189.41 24.696 189.89 23.192 189.89 21.144L190.802 21.096L191.33 25.656H189.986C189.794 27 189.314 28.264 188.546 29.448C187.81 30.632 186.738 31.608 185.33 32.376C183.954 33.112 182.21 33.48 180.098 33.48ZM197.09 33H190.37V25.56L189.89 25.32V8.952H197.09V33ZM207.972 33H200.772V8.952H207.444V15.816L207.972 16.056V33ZM207.972 19.08H206.532V15.336H207.876C208.1 14.024 208.532 12.856 209.172 11.832C209.844 10.776 210.74 9.96 211.86 9.384C212.98 8.776 214.34 8.472 215.94 8.472C217.764 8.472 219.22 8.856 220.308 9.624C221.428 10.36 222.244 11.368 222.756 12.648C223.268 13.896 223.524 15.304 223.524 16.872V20.856H216.324V18.36C216.324 17.016 216.02 16.056 215.412 15.48C214.836 14.872 213.812 14.568 212.34 14.568C210.74 14.568 209.604 14.936 208.932 15.672C208.292 16.408 207.972 17.544 207.972 19.08Z" fill="#25324B"/>
</svg>
